<svg width="54" height="55" viewBox="0 0 54 55" fill="none" xmlns="http://www.w3.org/2000/svg">
    <path d="M6.15444 10.2422C6.01569 10.4007 5.95623 10.6779 6.03551 10.8562C6.13462 11.1334 6.55087 11.173 8.98893 11.173C11.427 11.173 11.8432 11.2127 12.1009 11.5097C12.2595 11.7078 12.8938 13.2922 13.4884 15.035C14.1029 16.7778 15.4508 20.6002 16.4815 23.5511C17.532 26.4822 19.1178 31.0373 20.0097 33.6516C20.9215 36.2658 21.7739 38.6028 21.9324 38.8404C22.5866 39.8703 22.7451 39.8901 32.5568 39.7515C42.0514 39.6128 42.3685 39.593 42.0514 38.781C41.9523 38.4839 40.981 38.4641 32.6559 38.5236C24.5885 38.6028 23.3398 38.5632 23.1019 38.3057C22.8641 38.068 21.5757 34.622 21.5757 34.2457C21.5757 34.1863 24.7273 34.1467 28.5727 34.1467C38.0474 34.1467 42.1108 33.9882 42.6064 33.5723C42.8839 33.3545 43.6173 31.0967 45.1634 25.7692C46.3725 21.6696 47.3438 18.1642 47.3438 18.0057C47.3438 17.8671 47.1257 17.471 46.868 17.1739L46.3923 16.6194H30.872H15.3517L14.3606 13.8071C13.7659 12.1633 13.1515 10.7967 12.8938 10.5393C12.4775 10.1036 12.2595 10.0838 9.42501 10.0244C6.96713 9.96494 6.33284 10.0046 6.15444 10.2422ZM45.9166 17.9661C46.0752 18.1444 45.9959 18.6593 45.6391 19.8476L45.1436 21.4716H42.5866C41.1792 21.4716 39.9899 21.3924 39.9305 21.2933C39.871 21.2141 39.9503 20.3823 40.1089 19.4713C40.2674 18.5603 40.4062 17.7879 40.4062 17.7483C40.4062 17.7285 41.5955 17.7086 43.0623 17.7086C44.985 17.7086 45.758 17.7879 45.9166 17.9661ZM22.0117 19.3921C22.5469 21.6498 22.7451 21.4716 19.7124 21.4716H17.0762L16.4617 19.8278C16.1445 18.9365 15.9067 18.1444 15.9661 18.0453C16.0058 17.9661 17.314 17.9265 18.8601 17.9463L21.6748 18.0057L22.0117 19.3921ZM30.2575 19.6297L30.1981 21.3725H26.9473H23.6767L23.3398 19.7882C23.1416 18.9167 22.983 18.1444 22.983 18.0453C22.9632 17.9661 24.6084 17.9067 26.6302 17.9067H30.317L30.2575 19.6297ZM38.9196 19.1148C38.8403 19.7684 38.7214 20.5605 38.6421 20.8378L38.5033 21.3725L35.094 21.432L31.6847 21.4716V20.917C31.6847 20.6002 31.6252 19.7882 31.5658 19.1148L31.427 17.9067H35.2526H39.0583L38.9196 19.1148ZM23.1416 24.68C23.3794 25.8088 23.6371 26.8783 23.6767 27.0565C23.7759 27.3734 23.5776 27.413 21.4369 27.413H19.0781L18.3447 25.1751C17.9483 23.9472 17.6113 22.8777 17.6113 22.7985C17.6113 22.7193 18.761 22.6599 20.1485 22.6599H22.7055L23.1416 24.68ZM30.4557 25.0761L30.5152 27.413H27.7204C26.1941 27.413 24.9453 27.3734 24.9453 27.314C24.9453 27.1556 24.1525 23.4124 24.0335 22.9965C23.9344 22.6797 24.1326 22.6599 27.1654 22.6995L30.3963 22.7589L30.4557 25.0761ZM38.206 23.5907C38.1267 24.1254 37.9483 25.1949 37.8294 25.9673L37.5915 27.413H34.6381H31.6847V25.0364V22.6599H35.0345H38.3646L38.206 23.5907ZM44.6678 23.1154C44.6084 23.353 44.311 24.4027 44.0137 25.4325L43.4587 27.314L41.1198 27.3734L38.7808 27.4328L38.8997 26.8783C38.9592 26.5812 39.098 25.69 39.2169 24.9374C39.6133 22.3826 39.2565 22.6599 42.1901 22.6599C44.7669 22.6599 44.7669 22.6599 44.6678 23.1154ZM24.4696 30.7204L24.9057 32.7603H22.9632H21.0405L20.3467 30.8195C19.9503 29.7698 19.6926 28.8192 19.7322 28.74C19.7917 28.6607 20.763 28.6211 21.9324 28.6409L24.0335 28.7003L24.4696 30.7204ZM30.4557 30.7204L30.5152 32.7603H28.3348H26.1743L25.7382 30.8789C25.5003 29.849 25.3616 28.9182 25.4409 28.7994C25.5202 28.6607 26.4518 28.6013 27.978 28.6409L30.3963 28.7003L30.4557 30.7204ZM37.2546 28.7003C37.314 28.74 37.2149 29.6708 37.0563 30.7799L36.759 32.7603H34.2218H31.6847V30.8195C31.6847 29.75 31.7441 28.7994 31.8234 28.74C31.9622 28.5815 37.1158 28.5419 37.2546 28.7003ZM42.8641 28.7796C42.9235 28.8786 42.7253 29.7896 42.428 30.7997L41.8928 32.6613L39.9503 32.7207C38.4835 32.7603 38.0276 32.7207 38.0276 32.5227C38.0474 31.9483 38.5628 29.0568 38.7015 28.839C38.8799 28.5617 42.7055 28.5023 42.8641 28.7796Z" fill="url(#paint0_linear_51_1735)"/>
    <path d="M24.7278 41.5339C22.3096 43.1381 23.4989 46.8218 26.373 46.5643C27.6019 46.4653 28.2759 45.99 28.7516 44.9205C29.8616 42.4053 27.0073 40.0089 24.7278 41.5339ZM27.2055 42.6826C27.6019 42.9994 27.7209 43.2569 27.7209 43.851C27.7209 45.2374 26.2937 45.891 25.2233 44.9799C24.8269 44.6432 24.6881 44.3264 24.6881 43.851C24.6881 43.3757 24.8269 43.0589 25.2233 42.7222C25.8973 42.1676 26.5117 42.1478 27.2055 42.6826Z" fill="url(#paint1_linear_51_1735)"/>
    <path d="M35.8871 41.4747C34.5393 42.3065 34.0834 43.9305 34.8564 45.198C36.3628 47.6538 40.01 46.6834 40.01 43.8315C40.01 42.7422 39.4748 41.8312 38.563 41.4153C37.6314 40.9796 36.68 40.9994 35.8871 41.4747ZM38.3252 42.762C38.6423 43.0591 38.8207 43.475 38.8207 43.8513C38.8207 44.6236 38.0477 45.4356 37.3341 45.4356C36.7593 45.4356 35.6493 44.4652 35.6493 43.9701C35.6493 42.5441 37.3539 41.7717 38.3252 42.762Z" fill="url(#paint2_linear_51_1735)"/>
    <defs>
        <linearGradient id="paint0_linear_51_1735" x1="6.00305" y1="24.9044" x2="47.3438" y2="24.9044" gradientUnits="userSpaceOnUse">
            <stop stop-color="#924E1F"/>
            <stop offset="0.56" stop-color="#FFE09D"/>
            <stop offset="1" stop-color="#CF9C51"/>
        </linearGradient>
        <linearGradient id="paint1_linear_51_1735" x1="23.4281" y1="43.8164" x2="28.9989" y2="43.8164" gradientUnits="userSpaceOnUse">
            <stop stop-color="#924E1F"/>
            <stop offset="0.56" stop-color="#FFE09D"/>
            <stop offset="1" stop-color="#CF9C51"/>
        </linearGradient>
        <linearGradient id="paint2_linear_51_1735" x1="34.4809" y1="43.8508" x2="40.01" y2="43.8508" gradientUnits="userSpaceOnUse">
            <stop stop-color="#924E1F"/>
            <stop offset="0.56" stop-color="#FFE09D"/>
            <stop offset="1" stop-color="#CF9C51"/>
        </linearGradient>
    </defs>
</svg>